<svg id="Group_223" data-name="Group 223" xmlns="http://www.w3.org/2000/svg" width="33.834" height="33.835" viewBox="0 0 33.834 33.835">
  <g id="Group_26" data-name="Group 26" transform="translate(0)">
    <path id="Path_54" data-name="Path 54" d="M632.989,6772.751a16.5,16.5,0,1,1-11.657,4.837,16.409,16.409,0,0,1,11.657-4.837Zm10.755,5.753a15.266,15.266,0,1,0,4.445,10.764,15.182,15.182,0,0,0-4.445-10.764Z" transform="translate(-616.072 -6772.352)" fill="#1f0404"/>
    <path id="Path_55" data-name="Path 55" d="M633.17,6806.336a16.922,16.922,0,1,1,11.962-4.958A16.813,16.813,0,0,1,633.17,6806.336Zm0-32.97a16.047,16.047,0,1,0,11.35,4.7A15.945,15.945,0,0,0,633.17,6773.366Zm0,31.683a15.631,15.631,0,1,1,11.058-26.682h0a15.627,15.627,0,0,1-11.058,26.682Zm0-30.4a14.762,14.762,0,1,0,10.446,4.329A14.661,14.661,0,0,0,633.17,6774.652Z" transform="translate(-616.253 -6772.501)" fill="#1f0404"/>
  </g>
  <g id="Group_27" data-name="Group 27" transform="translate(13.007 9.139)">
    <path id="Path_56" data-name="Path 56" d="M628.911,6782.074v-1.248a.68.68,0,0,1,.735-.743h1.878v-2.669h-2.586c-2.876,0-3.52,1.976-3.52,3.261v1.4h-1.67v3.118h1.687v7.786h3.349v-7.786h2.476l.11-1.226.2-1.893Z" transform="translate(-623.749 -6777.414)" fill="#1f0404" fill-rule="evenodd"/>
  </g>
</svg>
