<svg xmlns="http://www.w3.org/2000/svg" width="34" height="34" viewBox="0 0 34 34">
  <g fill="#1F0404" fill-rule="evenodd">
    <path fill-rule="nonzero" d="M17,0 C26.3888407,0 34,7.61115925 34,17 C34,26.3888407 26.3888407,34 17,34 C7.61115925,34 0,26.3888407 0,17 C0,7.61115925 7.61115925,0 17,0 Z M17,2.2 C8.8261857,2.2 2.2,8.8261857 2.2,17 C2.2,25.1738143 8.8261857,31.8 17,31.8 C25.1738143,31.8 31.8,25.1738143 31.8,17 C31.8,8.8261857 25.1738143,2.2 17,2.2 Z"/>
    <path d="M5.162,4.66 L5.162,3.412 C5.14255443,3.21103587 5.21341875,3.01182259 5.3554107,2.86828515 C5.49740265,2.72474771 5.69583715,2.65173103 5.897,2.669 L7.775,2.669 L7.775,0 L5.189,0 C2.313,0 1.669,1.976 1.669,3.261 L1.669,4.661 L-0.001,4.661 L-0.001,7.779 L1.686,7.779 L1.686,15.565 L5.035,15.565 L5.035,7.779 L7.511,7.779 L7.621,6.553 L7.821,4.66 L5.162,4.66 Z" transform="translate(13.007 9.139)"/>
  </g>
</svg>
