<svg id="Component_27_1" data-name="Component 27 – 1" xmlns="http://www.w3.org/2000/svg" width="46" height="46" viewBox="0 0 46 46">
  <g id="Ellipse_9" data-name="Ellipse 9" fill="none" stroke="#000" stroke-width="2">
    <circle cx="23" cy="23" r="23" stroke="none"/>
    <circle cx="23" cy="23" r="22" fill="none"/>
  </g>
  <g id="instagram_1_" data-name="instagram (1)" transform="translate(10.662 10.69)">
    <path id="Path_11043" data-name="Path 11043" d="M12.253,5.838a6.407,6.407,0,1,0,6.407,6.407,6.406,6.406,0,0,0-6.407-6.407Zm0,10.565a4.158,4.158,0,1,1,4.158-4.158A4.157,4.157,0,0,1,12.253,16.4Z" transform="translate(0.236 0.236)"/>
    <path id="Path_11044" data-name="Path 11044" d="M17.632.079c-2.3-.107-7.987-.1-10.286,0A7.461,7.461,0,0,0,2.107,2.1C-.294,4.5.012,7.735.012,12.48c0,4.856-.27,8.017,2.094,10.382,2.411,2.41,5.693,2.094,10.382,2.094,4.811,0,6.471,0,8.172-.655,2.313-.9,4.059-2.965,4.229-6.678.108-2.3.1-7.987,0-10.286C24.684,2.954,22.332.3,17.632.079Zm3.636,21.195c-1.574,1.574-3.758,1.434-8.81,1.434-5.2,0-7.288.077-8.81-1.449C1.9,19.513,2.213,16.712,2.213,12.464c0-5.748-.59-9.888,5.179-10.183,1.325-.047,1.716-.062,5.052-.062l.047.031c5.544,0,9.894-.581,10.155,5.187.059,1.316.073,1.711.073,5.043,0,5.142.1,7.24-1.45,8.794Z" transform="translate(0 0)"/>
    <circle id="Ellipse_8" data-name="Ellipse 8" cx="1.497" cy="1.497" r="1.497" transform="translate(17.652 4.324)"/>
  </g>
</svg>
