<svg id="Group_224" data-name="Group 224" xmlns="http://www.w3.org/2000/svg" width="33.834" height="33.835" viewBox="0 0 33.834 33.835">
  <g id="Group_29" data-name="Group 29" transform="translate(0)">
    <path id="Path_57" data-name="Path 57" d="M660.95,6772.751a16.5,16.5,0,1,1-11.657,4.837,16.4,16.4,0,0,1,11.657-4.837ZM671.7,6778.5a15.266,15.266,0,1,0,4.445,10.764A15.175,15.175,0,0,0,671.7,6778.5Z" transform="translate(-644.033 -6772.352)" fill="#1f0404"/>
    <path id="Path_58" data-name="Path 58" d="M661.129,6806.336a16.922,16.922,0,1,1,11.963-4.958A16.812,16.812,0,0,1,661.129,6806.336Zm0-32.97a16.05,16.05,0,1,0,11.35,4.7A15.951,15.951,0,0,0,661.129,6773.366Zm0,31.683a15.631,15.631,0,1,1,11.058-26.682h0a15.628,15.628,0,0,1-11.059,26.682Zm0-30.4a14.759,14.759,0,1,0,10.448,4.329A14.657,14.657,0,0,0,661.129,6774.652Z" transform="translate(-644.213 -6772.501)" fill="#1f0404"/>
  </g>
  <g id="Group_30" data-name="Group 30" transform="translate(9.677 10.177)">
    <path id="Path_59" data-name="Path 59" d="M652.823,6784.8a4.207,4.207,0,1,1,4.193,3.91,4.065,4.065,0,0,1-4.193-3.91Zm-.136-6.741h8.666a2.821,2.821,0,0,1,2.912,2.71v8.068a2.822,2.822,0,0,1-2.912,2.711h-8.666a2.821,2.821,0,0,1-2.912-2.711v-8.068a2.819,2.819,0,0,1,2.912-2.71Zm9.527,1.14a.8.8,0,1,0,.854.793.825.825,0,0,0-.854-.793Zm.1,5.6a5.313,5.313,0,1,0-5.3,4.932,5.124,5.124,0,0,0,5.3-4.932Z" transform="translate(-649.775 -6778.062)" fill="#1f0404" fill-rule="evenodd"/>
  </g>
</svg>
