<svg xmlns="http://www.w3.org/2000/svg" width="34" height="34" viewBox="0 0 34 34">
  <g fill="#1F0404" fill-rule="evenodd">
    <path fill-rule="nonzero" d="M17,0 C26.3888407,0 34,7.61115925 34,17 C34,26.3888407 26.3888407,34 17,34 C7.61115925,34 0,26.3888407 0,17 C0,7.61115925 7.61115925,0 17,0 Z M17,2.2 C8.8261857,2.2 2.2,8.8261857 2.2,17 C2.2,25.1738143 8.8261857,31.8 17,31.8 C25.1738143,31.8 31.8,25.1738143 31.8,17 C31.8,8.8261857 25.1738143,2.2 17,2.2 Z"/>
    <path d="M3.048,6.738 C2.92594054,5.0133352 3.87150082,3.38959691 5.43173634,2.64459203 C6.99197187,1.89958714 8.84915616,2.18502851 10.1136565,3.36418335 C11.3781568,4.54333819 11.7924702,6.37608331 11.1581313,7.98449288 C10.5237924,9.59290245 8.96997805,10.6494398 7.241,10.648 C5.00572024,10.7200042 3.13211686,8.97285672 3.048,6.738 L3.048,6.738 Z M2.912,-0.003 L11.578,-0.003 C13.1287689,-0.0542206196 14.4297931,1.15655394 14.49,2.707 L14.49,10.775 C14.4297903,12.3255953 13.1289367,13.5366578 11.578,13.486 L2.912,13.486 C1.36085576,13.5372118 0.0596719737,12.3258418 -1.13686838e-13,10.775 L-1.13686838e-13,2.707 C0.0591300631,1.15606023 1.36081591,-0.0553300969 2.912,-0.003 L2.912,-0.003 Z M12.439,1.137 C12.0045161,1.16640386 11.6733591,1.53793096 11.6939079,1.97292361 C11.7144566,2.40791627 12.0791621,2.74657133 12.514483,2.73488624 C12.9498039,2.72320114 13.2958166,2.36546863 13.293,1.93 C13.2756481,1.47542613 12.893612,1.12067835 12.439,1.137 Z M12.539,6.737 C12.6955875,4.55902685 11.5036483,2.50702393 9.53418137,1.56400404 C7.5647144,0.620984144 5.21881135,0.978997949 3.62027799,2.4665388 C2.02174464,3.95407965 1.49613021,6.26820249 2.29523052,8.30032585 C3.09433082,10.3324492 5.05540512,11.6687211 7.239,11.669 C10.0635102,11.7679966 12.4348329,9.56132427 12.539,6.737 L12.539,6.737 Z" transform="translate(9.677 10.177)"/>
  </g>
</svg>
