<?xml version="1.0" encoding="UTF-8"?>
<svg width="46px" height="46px" viewBox="0 0 46 46" version="1.1" xmlns="http://www.w3.org/2000/svg" xmlns:xlink="http://www.w3.org/1999/xlink">
    <!-- Generator: Sketch 46.1 (44463) - http://www.bohemiancoding.com/sketch -->
    <title>Untitled</title>
    <desc>Created with Sketch.</desc>
    <defs></defs>
    <g id="Page-1" stroke="none" stroke-width="1" fill="none" fill-rule="evenodd">
        <g id="Group" fill-rule="nonzero" fill="#000000">
            <path d="M23,46 C10.2974508,46 0,35.7025492 0,23 C0,10.2974508 10.2974508,0 23,0 C35.7025492,0 46,10.2974508 46,23 C46,35.7025492 35.7025492,46 23,46 Z M23,44 C34.5979797,44 44,34.5979797 44,23 C44,11.4020203 34.5979797,2 23,2 C11.4020203,2 2,11.4020203 2,23 C2,34.5979797 11.4020203,44 23,44 Z" id="Oval"></path>
            <g id="instagram_1_" transform="translate(9.662000, 10.690000)">
                <path d="M13.489,6.074 C9.95051161,6.074 7.082,8.94251161 7.082,12.481 C7.082,16.0194884 9.95051161,18.888 13.489,18.888 C17.0274884,18.888 19.896,16.0194884 19.896,12.481 C19.8962653,10.7816766 19.2213292,9.15187697 18.0197261,7.95027388 C16.818123,6.74867079 15.1883234,6.07373471 13.489,6.074 Z M13.489,16.639 C11.1926,16.639 9.331,14.7774 9.331,12.481 C9.331,10.1846 11.1926,8.323 13.489,8.323 C15.7854,8.323 17.647,10.1846 17.647,12.481 C17.6458957,14.7764572 15.7844574,16.6365525 13.489,16.636 L13.489,16.639 Z" id="Path_11043"></path>
                <path d="M18.632,0.079 C16.332,-0.028 10.645,-0.021 8.346,0.079 C6.40311858,0.0447257071 4.52352111,0.769800435 3.107,2.1 C0.706,4.5 1.012,7.735 1.012,12.48 C1.012,17.336 0.742,20.497 3.106,22.862 C5.517,25.272 8.799,24.956 13.488,24.956 C18.299,24.956 19.959,24.956 21.66,24.301 C23.973,23.401 25.719,21.336 25.889,17.623 C25.997,15.323 25.989,9.636 25.889,7.337 C25.684,2.954 23.332,0.3 18.632,0.079 Z M22.268,21.274 C20.694,22.848 18.51,22.708 13.458,22.708 C8.258,22.708 6.17,22.785 4.648,21.259 C2.9,19.513 3.213,16.712 3.213,12.464 C3.213,6.716 2.623,2.576 8.392,2.281 C9.717,2.234 10.108,2.219 13.444,2.219 L13.491,2.25 C19.035,2.25 23.385,1.669 23.646,7.437 C23.705,8.753 23.719,9.148 23.719,12.48 C23.719,17.622 23.819,19.72 22.269,21.274 L22.268,21.274 Z" id="Path_11044"></path>
                <circle id="Ellipse_8" cx="20.149" cy="5.821" r="1.497"></circle>
            </g>
        </g>
    </g>
</svg>