<svg id="Group_269" data-name="Group 269" xmlns="http://www.w3.org/2000/svg" width="33.834" height="33.834" viewBox="0 0 33.834 33.834">
  <g id="Group_23" data-name="Group 23" transform="translate(0)">
    <path id="Path_51" data-name="Path 51" d="M716.867,6772.771a16.5,16.5,0,1,1-11.657,4.838,16.423,16.423,0,0,1,11.657-4.838Zm10.746,5.75a15.248,15.248,0,1,0,4.454,10.766,15.141,15.141,0,0,0-4.454-10.766Z" transform="translate(-699.951 -6772.37)" fill="#1f0404"/>
    <path id="Path_52" data-name="Path 52" d="M717.048,6806.354a16.92,16.92,0,1,1,11.962-4.954A16.774,16.774,0,0,1,717.048,6806.354Zm0-32.969a16.055,16.055,0,1,0,11.35,4.7A15.9,15.9,0,0,0,717.048,6773.386Zm0,31.682a15.625,15.625,0,1,1,11.05-4.573A15.562,15.562,0,0,1,717.048,6805.067Zm0-30.394A14.773,14.773,0,1,0,727.485,6779,14.71,14.71,0,0,0,717.048,6774.674Z" transform="translate(-700.132 -6772.521)" fill="#1f0404"/>
    <path id="spotify_2_" data-name="spotify (2)" d="M19.9,20.279h0c-.993,0-4.128-3.479-12.941-1.673a3.8,3.8,0,0,1-.709.155.978.978,0,0,1-.13-1.941c4.875-1.076,9.857-.982,14.106,1.56a.99.99,0,0,1-.326,1.9Zm1.6-3.9c-.139-.037-.1.085-.734-.25a19.29,19.29,0,0,0-14.2-1.751,2.445,2.445,0,0,1-.709.155,1.21,1.21,0,0,1-.231-2.387,21.564,21.564,0,0,1,16.357,1.9,1.241,1.241,0,0,1,.673,1.172A1.154,1.154,0,0,1,21.505,16.376ZM4.742,7.168c5.564-1.629,13.984-1.115,19.22,1.941a1.447,1.447,0,0,1-.613,2.731h0a1.37,1.37,0,0,1-.769-.233C18.344,9.077,10.765,8.471,5.861,9.84a2.865,2.865,0,0,1-.769.154,1.374,1.374,0,0,1-1.386-1.4A1.406,1.406,0,0,1,4.742,7.168Z" transform="translate(3.294 3.74)"/>
  </g>
</svg>
