<svg xmlns="http://www.w3.org/2000/svg" width="34" height="34" viewBox="0 0 34 34">
  <g fill="#1F0404" fill-rule="evenodd">
    <path fill-rule="nonzero" d="M17,0 C26.3888407,0 34,7.61115925 34,17 C34,26.3888407 26.3888407,34 17,34 C7.61115925,34 0,26.3888407 0,17 C0,7.61115925 7.61115925,0 17,0 Z M17,2.2 C8.8261857,2.2 2.2,8.8261857 2.2,17 C2.2,25.1738143 8.8261857,31.8 17,31.8 C25.1738143,31.8 31.8,25.1738143 31.8,17 C31.8,8.8261857 25.1738143,2.2 17,2.2 Z"/>
    <path d="M17.73,2.477 C17.0992916,2.73086365 16.4373964,2.89902807 15.762,2.977 C16.4672951,2.60362525 17.0076281,1.98019148 17.277,1.229 C16.5933194,1.59931095 15.8551015,1.85854795 15.09,1.997 C14.4166767,1.34515928 13.5130879,0.985736536 12.576,0.997 C10.7630286,0.923536921 9.23083649,2.32752521 9.146,4.14 C9.1514746,4.38239359 9.18503194,4.62333531 9.246,4.858 C6.53981436,4.7651561 3.98665801,3.58003266 2.169,1.573 C1.86703551,2.04443764 1.70349663,2.59118414 1.697,3.151 C1.71465987,4.22971435 2.29187837,5.2216666 3.221,5.77 C2.68072133,5.76076007 2.14976589,5.62767909 1.669,5.381 L1.669,5.424 C1.66859334,5.81326518 1.74895351,6.1983811 1.905,6.555 C2.36838051,7.58365542 3.31510592,8.3127428 4.428,8.498 C4.13178811,8.5750938 3.82707734,8.61473644 3.521,8.616 C3.30455075,8.61582736 3.08871203,8.59303694 2.877,8.548 C3.3888949,9.87029685 4.65908407,10.7435519 6.077,10.748 C4.83339688,11.6300164 3.34461038,12.100049 1.82,12.092 C1.538,12.092 1.276,12.074 0.995,12.049 C2.59336877,12.9764803 4.40902943,13.463693 6.257,13.461 C10.703915,13.6633147 14.6843458,10.7222187 15.797,6.412 C15.9474888,5.78988346 16.0233563,5.15205916 16.023,4.512 L16.023,4.106 C16.6822176,3.66531371 17.2595327,3.11304046 17.729,2.474 L17.73,2.477 Z" transform="translate(7.552 9.688)"/>
  </g>
</svg>
