<svg xmlns="http://www.w3.org/2000/svg" width="33.834" height="33.835" viewBox="0 0 33.834 33.835">
  <g id="Group_221" data-name="Group 221" transform="translate(0 0)">
    <g id="Group_20" data-name="Group 20" transform="translate(0)">
      <path id="Path_48" data-name="Path 48" d="M605.031,6772.756a16.5,16.5,0,1,1-11.657,4.837,16.452,16.452,0,0,1,11.657-4.837Zm10.744,5.75a15.24,15.24,0,1,0,4.454,10.771,15.136,15.136,0,0,0-4.454-10.771Z" transform="translate(-588.113 -6772.355)" fill="#1f0404"/>
      <path id="Path_49" data-name="Path 49" d="M605.211,6806.339a16.917,16.917,0,1,1,11.962-4.954A16.841,16.841,0,0,1,605.211,6806.339Zm0-32.968a16.049,16.049,0,1,0,11.349,4.7A15.978,15.978,0,0,0,605.211,6773.371Zm0,31.681a15.637,15.637,0,1,1,11.048-4.579A15.528,15.528,0,0,1,605.211,6805.052Zm0-30.383a14.751,14.751,0,1,0,10.438,4.316h0A14.66,14.66,0,0,0,605.211,6774.668Z" transform="translate(-588.294 -6772.504)" fill="#1f0404"/>
    </g>
    <g id="Group_21" data-name="Group 21" transform="translate(8.552 10.688)">
      <path id="Path_50" data-name="Path 50" d="M609.933,6779.865a7.607,7.607,0,0,1-1.968.5,3.2,3.2,0,0,0,1.515-1.748,7.334,7.334,0,0,1-2.187.768,3.553,3.553,0,0,0-2.514-1,3.3,3.3,0,0,0-3.43,3.143,3.137,3.137,0,0,0,.1.718,10.011,10.011,0,0,1-7.077-3.285,2.99,2.99,0,0,0-.472,1.578,3.1,3.1,0,0,0,1.524,2.619,3.532,3.532,0,0,1-1.552-.389v.043a2.814,2.814,0,0,0,.236,1.131,3.375,3.375,0,0,0,2.523,1.943,3.661,3.661,0,0,1-.907.118,3.107,3.107,0,0,1-.644-.068,3.443,3.443,0,0,0,3.2,2.2,7.292,7.292,0,0,1-4.257,1.344c-.282,0-.544-.018-.825-.043a10.454,10.454,0,0,0,5.262,1.412A9.411,9.411,0,0,0,608,6783.8a8.062,8.062,0,0,0,.226-1.9v-.406a6.82,6.82,0,0,0,1.706-1.632Z" transform="translate(-593.203 -6778.388)" fill="#1f0404" fill-rule="evenodd"/>
    </g>
  </g>
</svg>
