<svg xmlns="http://www.w3.org/2000/svg" width="33.834" height="33.834" viewBox="0 0 33.834 33.834">
  <g id="Group_222" data-name="Group 222" transform="translate(0 0)">
    <g id="Group_23" data-name="Group 23" transform="translate(0)">
      <path id="Path_51" data-name="Path 51" d="M716.867,6772.771a16.5,16.5,0,1,1-11.657,4.838,16.423,16.423,0,0,1,11.657-4.838Zm10.746,5.75a15.248,15.248,0,1,0,4.454,10.766,15.141,15.141,0,0,0-4.454-10.766Z" transform="translate(-699.951 -6772.37)" fill="#1f0404"/>
      <path id="Path_52" data-name="Path 52" d="M717.048,6806.354a16.92,16.92,0,1,1,11.962-4.954A16.774,16.774,0,0,1,717.048,6806.354Zm0-32.969a16.055,16.055,0,1,0,11.35,4.7A15.9,15.9,0,0,0,717.048,6773.386Zm0,31.682a15.625,15.625,0,1,1,11.05-4.573A15.562,15.562,0,0,1,717.048,6805.067Zm0-30.394A14.773,14.773,0,1,0,727.485,6779,14.71,14.71,0,0,0,717.048,6774.674Z" transform="translate(-700.132 -6772.521)" fill="#1f0404"/>
    </g>
    <g id="Group_24" data-name="Group 24" transform="translate(9.685 9.27)">
      <path id="Path_53" data-name="Path 53" d="M715.335,6780.677c0-1.139,2.468-1.706,2.468.153a8,8,0,0,1-.417,2.493h2.576a14.5,14.5,0,0,0,.191-2.957c0-3.573-7.368-4.147-7.368.361a6.04,6.04,0,0,0,3.521,5.7,13.177,13.177,0,0,1-3.521,4.012c-5.39-3.985-4.818-10.82-4.818-10.82H705.7c.053,9.141,5.407,12.307,6.07,12.781.616.462.727.413,1.579.413.771-.026,2.523-1.682,4.682-4.747.191-.287.4-.585.572-.87a8.982,8.982,0,0,0,1.551.177v-1.918c-4.565-.4-4.818-3.909-4.818-4.781Z" transform="translate(-705.699 -6777.516)" fill="#1f0404" fill-rule="evenodd"/>
    </g>
  </g>
</svg>
