<svg xmlns="http://www.w3.org/2000/svg" width="34" height="34" viewBox="0 0 34 34">
  <g fill="#1F0404" fill-rule="evenodd">
    <path fill-rule="nonzero" d="M17,0 C26.3888407,0 34,7.61115925 34,17 C34,26.3888407 26.3888407,34 17,34 C7.61115925,34 0,26.3888407 0,17 C0,7.61115925 7.61115925,0 17,0 Z M17,2.2 C8.8261857,2.2 2.2,8.8261857 2.2,17 C2.2,25.1738143 8.8261857,31.8 17,31.8 C25.1738143,31.8 31.8,25.1738143 31.8,17 C31.8,8.8261857 25.1738143,2.2 17,2.2 Z"/>
    <path d="M9.636,3.161 C9.636,2.022 12.104,1.455 12.104,3.314 C12.0979867,4.16184707 11.9572303,5.00334807 11.687,5.807 L14.263,5.807 C14.4274773,4.83044193 14.4914781,3.83960288 14.454,2.85 C14.454,-0.723 7.086,-1.297 7.086,3.211 C7.00176303,5.64747348 8.39054217,7.89571009 10.607,8.911 C9.71933462,10.4745412 8.52108593,11.8398845 7.086,12.923 C1.696,8.938 2.268,2.103 2.268,2.103 L0.001,2.103 C0.054,11.244 5.408,14.41 6.071,14.884 C6.687,15.346 6.798,15.297 7.65,15.297 C8.421,15.271 10.173,13.615 12.332,10.55 C12.523,10.263 12.732,9.965 12.904,9.68 C13.4148835,9.7839005 13.9338429,9.84312411 14.455,9.857 L14.455,7.939 C9.89,7.539 9.637,4.03 9.637,3.158 L9.636,3.161 Z" transform="translate(9.685 9.27)"/>
  </g>
</svg>
