<svg xmlns="http://www.w3.org/2000/svg" width="33.834" height="33.835" viewBox="0 0 33.834 33.835">
  <g id="Group_220" data-name="Group 220" transform="translate(0 0)">
    <g id="Group_17" data-name="Group 17" transform="translate(0)">
      <path id="Path_45" data-name="Path 45" d="M688.908,6772.756a16.5,16.5,0,1,1-11.657,4.837,16.45,16.45,0,0,1,11.657-4.837Zm10.744,5.75a15.239,15.239,0,1,0,4.454,10.771,15.136,15.136,0,0,0-4.454-10.771Z" transform="translate(-671.991 -6772.355)" fill="#1f0404"/>
      <path id="Path_46" data-name="Path 46" d="M689.089,6806.339a16.917,16.917,0,1,1,11.961-4.954A16.837,16.837,0,0,1,689.089,6806.339Zm0-32.968a16.046,16.046,0,1,0,11.35,4.7A15.985,15.985,0,0,0,689.089,6773.371Zm0,31.681a15.634,15.634,0,1,1,11.049-4.579A15.531,15.531,0,0,1,689.089,6805.052Zm0-30.383a14.751,14.751,0,1,0,10.437,4.316h0A14.664,14.664,0,0,0,689.089,6774.668Z" transform="translate(-672.172 -6772.504)" fill="#1f0404"/>
    </g>
    <g id="Group_18" data-name="Group 18" transform="translate(8.542 11.204)">
      <path id="Path_47" data-name="Path 47" d="M693.653,6781.176a3.517,3.517,0,0,0-.672-1.614,2.493,2.493,0,0,0-1.67-.693c-2.34-.16-5.851-.16-5.851-.16h-.019s-3.5,0-5.844.16a2.476,2.476,0,0,0-1.677.693,3.515,3.515,0,0,0-.672,1.614,23,23,0,0,0-.174,2.617v1.245a22.571,22.571,0,0,0,.174,2.617,3.561,3.561,0,0,0,.672,1.623,2.844,2.844,0,0,0,1.851.691c1.333.127,5.689.167,5.689.167s3.511-.014,5.851-.167a2.434,2.434,0,0,0,1.67-.691,3.563,3.563,0,0,0,.672-1.623,24.227,24.227,0,0,0,.162-2.617v-1.245a24.686,24.686,0,0,0-.162-2.617Zm-5.408,3.074-4.527,2.272v-4.562l2.051,1.04Z" transform="translate(-677.075 -6778.709)" fill="#1f0404" fill-rule="evenodd"/>
    </g>
  </g>
</svg>
