<svg xmlns="http://www.w3.org/2000/svg" width="34" height="34" viewBox="0 0 34 34">
  <g fill="#1F0404" fill-rule="evenodd">
    <path fill-rule="nonzero" d="M17,0 C26.3888407,0 34,7.61115925 34,17 C34,26.3888407 26.3888407,34 17,34 C7.61115925,34 0,26.3888407 0,17 C0,7.61115925 7.61115925,0 17,0 Z M17,2.2 C8.8261857,2.2 2.2,8.8261857 2.2,17 C2.2,25.1738143 8.8261857,31.8 17,31.8 C25.1738143,31.8 31.8,25.1738143 31.8,17 C31.8,8.8261857 25.1738143,2.2 17,2.2 Z"/>
    <path d="M16.578,2.467 C16.4934228,1.88101317 16.2622813,1.32586097 15.906,0.853 C15.4556654,0.421161855 14.8597729,0.173884339 14.236,0.16 C11.896,2.72848411e-12 8.385,2.72848411e-12 8.385,2.72848411e-12 L8.366,2.72848411e-12 C8.366,2.72848411e-12 4.866,2.72848411e-12 2.522,0.16 C1.8954462,0.170464474 1.29616514,0.418110137 0.845,0.853 C0.488643073,1.32581766 0.25749324,1.88099003 0.173,2.467 C0.0652689701,3.33531353 0.0071745396,4.20906712 -0.001,5.084 L-0.001,6.329 C0.00622501902,7.20396859 0.0643230794,8.07777678 0.173,8.946 C0.257955935,9.53462765 0.488984904,10.0926039 0.845,10.569 C1.35959401,11.0131388 2.01624762,11.2582753 2.696,11.26 C4.029,11.387 8.385,11.427 8.385,11.427 C8.385,11.427 11.896,11.413 14.236,11.26 C14.8607199,11.2525326 15.4586475,11.0051267 15.906,10.569 C16.2619407,10.0925615 16.4929615,9.53460498 16.578,8.946 C16.6791999,8.07723047 16.7332791,7.20361806 16.74,6.329 L16.74,5.084 C16.732398,4.2094128 16.6783218,3.33584757 16.578,2.467 L16.578,2.467 Z M11.17,5.541 L6.643,7.813 L6.643,3.251 L8.694,4.291 L11.17,5.541 Z" transform="translate(8.542 11.204)"/>
  </g>
</svg>
