<svg xmlns="http://www.w3.org/2000/svg" xmlns:xlink="http://www.w3.org/1999/xlink" width="582.155" height="239.203" viewBox="0 0 582.155 239.203">
  <defs>
    <clipPath id="clip-path">
      <rect id="Rectangle_104" data-name="Rectangle 104" width="582.155" height="239.203" fill="#ba7d4c"/>
    </clipPath>
  </defs>
  <g id="Group_229" data-name="Group 229" transform="translate(0 0)">
    <g id="Group_228" data-name="Group 228" transform="translate(0 0)" clip-path="url(#clip-path)">
      <path id="Path_11012" data-name="Path 11012" d="M0,48.385V20.614C0,8.888,9.361,0,23.337,0S46.589,8.983,46.589,20.888V48.111C46.589,60.016,37.322,69,23.337,69S0,60.11,0,48.385m31.573-1.409V22.023c0-5.579-3.319-8.406-8.236-8.406-5,0-8.3,2.827-8.3,8.406V46.976c0,5.484,3.3,8.416,8.3,8.416,4.917,0,8.236-2.931,8.236-8.416" transform="translate(0 0.001)" fill="#ba7d4c"/>
      <path id="Path_11013" data-name="Path 11013" d="M29.938,44.423l-12.945-9.55c-6.241-4.633-9.645-9.352-9.645-16.916C7.348,6.335,15.291,0,27.773,0,40.992,0,48.935,6.8,48.935,19.848v3.111H33.91V20.6c0-4.35-1.135-7.47-6.137-7.47-3.414,0-5.4,1.607-5.4,4.633,0,2.08.955,3.971,5.2,6.9L40.9,34.211c5.3,3.782,8.7,8.5,8.7,15.782C49.6,61.151,41.749,69,27.953,69,13.589,69,5.93,60.479,5.93,46.21V42.816H20.965V46.5c0,6.61,2.544,9.352,7.186,9.352,3.867,0,6.515-1.891,6.515-5.2,0-1.409-.577-3.215-4.728-6.231" transform="translate(50.143 0.001)" fill="#ba7d4c"/>
      <path id="Path_11014" data-name="Path 11014" d="M58.149,48.385C58.149,58.692,50.963,69,34.8,69c-16.254,0-23.252-10.127-23.252-20.33V20.32C11.551,10.108,18.548,0,34.8,0c16.16,0,23.346,10.307,23.346,20.6v3.688H43.114V21.55c0-5.2-3.593-7.943-8.312-7.943s-8.227,2.742-8.227,7.943V47.44c0,5.2,3.5,7.943,8.227,7.943s8.312-2.742,8.312-7.943V43.761H58.149Z" transform="translate(97.673 0.001)" fill="#ba7d4c"/>
      <rect id="Rectangle_98" data-name="Rectangle 98" width="15.025" height="66.153" transform="translate(166.781 1.428)" fill="#ba7d4c"/>
      <path id="Path_11015" data-name="Path 11015" d="M55.874,66.3H20.528V.15H35.554V52.7h20.32Z" transform="translate(173.583 1.273)" fill="#ba7d4c"/>
      <path id="Path_11016" data-name="Path 11016" d="M60.595,66.3H25.249V.15H40.274V52.7h20.32Z" transform="translate(213.5 1.273)" fill="#ba7d4c"/>
      <path id="Path_11017" data-name="Path 11017" d="M62.043,48.63h-13.8L44.834,66.218h-15.1L42.47.15H67.906L80.577,66.312H65.552ZM59.5,35.779l-4.359-22.3-4.34,22.3Z" transform="translate(251.416 1.269)" fill="#ba7d4c"/>
      <path id="Path_11018" data-name="Path 11018" d="M35.392.15H82.463V13.757H66.483V66.3H51.363V13.757H35.392Z" transform="translate(299.269 1.272)" fill="#ba7d4c"/>
      <rect id="Rectangle_99" data-name="Rectangle 99" width="15.025" height="66.153" transform="translate(391.365 1.428)" fill="#ba7d4c"/>
      <path id="Path_11019" data-name="Path 11019" d="M44.176,48.385V20.614C44.176,8.888,53.537,0,67.522,0S90.774,8.983,90.774,20.888V48.111C90.774,60.016,81.507,69,67.522,69S44.176,60.11,44.176,48.385m31.573-1.409V22.023c0-5.579-3.31-8.406-8.227-8.406-5,0-8.312,2.827-8.312,8.406V46.976c0,5.484,3.31,8.416,8.312,8.416,4.917,0,8.227-2.931,8.227-8.416" transform="translate(373.543 0.001)" fill="#ba7d4c"/>
      <path id="Path_11020" data-name="Path 11020" d="M102.85.141V66.388H85.366L65.329,26.976V66.388H50.3V.235H67.693L87.825,42.19V.141Z" transform="translate(425.36 1.19)" fill="#ba7d4c"/>
      <path id="Path_11021" data-name="Path 11021" d="M80.956,44.423l-12.945-9.55c-6.241-4.633-9.645-9.352-9.645-16.916C58.366,6.335,66.309,0,78.791,0,92.01,0,99.953,6.8,99.953,19.848v3.111H84.928V20.6c0-4.35-1.135-7.47-6.137-7.47-3.414,0-5.4,1.607-5.4,4.633,0,2.08.955,3.971,5.2,6.9l13.323,9.541c5.3,3.782,8.7,8.5,8.7,15.782C100.615,61.151,92.767,69,78.971,69c-14.363,0-22.023-8.52-22.023-22.788V42.816H71.983V46.5c0,6.61,2.544,9.352,7.186,9.352,3.867,0,6.515-1.891,6.515-5.2,0-1.409-.577-3.215-4.728-6.231" transform="translate(481.54 0.001)" fill="#ba7d4c"/>
      <path id="Path_11022" data-name="Path 11022" d="M41.064,9.15v7.839H11.307V32.118h23.81v7.839H11.307V67.738H41.064V75.3H2.693V9.15Z" transform="translate(22.768 77.374)" fill="#ba7d4c"/>
      <path id="Path_11023" data-name="Path 11023" d="M27.372,56.6V27.768L7.893,9.15H19.429L31.712,20.5,43.806,9.15H55.342L35.967,27.768V56.6L55.342,75.312H43.806L31.712,63.965,19.523,75.312H8Z" transform="translate(66.74 77.371)" fill="#ba7d4c"/>
      <path id="Path_11024" data-name="Path 11024" d="M52.539,9.15v7.839H22.772V32.118h23.81v7.839H22.772V67.738H52.539V75.3H14.167V9.15Z" transform="translate(119.795 77.374)" fill="#ba7d4c"/>
      <path id="Path_11025" data-name="Path 11025" d="M28.256,47.9,55.942,75.3H44.217L28.256,59.332V75.3h-8.6V9.15H41.012c10.959,0,16.822,4.822,16.822,14.089s-5.863,14.08-16.822,14.08H28.256Zm0-18.146H41.012c5.286,0,8.123-2.269,8.123-6.515,0-4.265-2.837-6.43-8.123-6.43H28.256Z" transform="translate(166.165 77.371)" fill="#ba7d4c"/>
      <path id="Path_11026" data-name="Path 11026" d="M67.649,57.206C67.649,72.136,56.312,78,46.289,78c-9.825,0-21.446-5.863-21.446-20.793V29.8C24.843,14.863,36.464,9,46.289,9c10.023,0,21.361,5.863,21.361,20.8v3.678h-8.6V30.843c0-8.983-4.633-13.995-12.765-13.995-8.028,0-12.85,5.012-12.85,13.995V56.165c0,8.983,4.822,13.985,12.85,13.985,8.132,0,12.765-5,12.765-13.985V52.289h8.6Z" transform="translate(210.067 76.103)" fill="#ba7d4c"/>
      <rect id="Rectangle_100" data-name="Rectangle 100" width="8.595" height="66.153" transform="translate(290.434 86.53)" fill="#ba7d4c"/>
      <path id="Path_11027" data-name="Path 11027" d="M57.643,51.248,44.036,41.225c-6.7-4.908-9.645-8.775-9.645-15.782C34.391,14.484,41.483,9,52.537,9c10.685,0,18.808,5.2,18.808,16.831v4.813h-8.6V26.588c0-5.957-3.319-9.825-10.4-9.825-5.39,0-9.257,2.354-9.257,8.406,0,3.867,1.513,6.231,6.43,9.825l12.945,9.172C68.6,48.506,72.29,53.045,72.29,60.7,72.29,71.285,65.482,78,53.009,78c-12.756,0-20.027-7-20.027-19.006V53.329h8.6v5.664c0,7.763,4.633,11.252,11.621,11.252,6.525,0,10.3-3.026,10.3-8.888,0-4.435-2.08-7.366-5.853-10.108" transform="translate(278.889 76.103)" fill="#ba7d4c"/>
      <path id="Path_11028" data-name="Path 11028" d="M76.881,9.15v7.839H47.123V32.118h23.81v7.839H47.123V67.738H76.881V75.3H38.509V9.15Z" transform="translate(325.624 77.374)" fill="#ba7d4c"/>
      <path id="Path_11029" data-name="Path 11029" d="M68.418,51.248,54.811,41.225c-6.7-4.908-9.645-8.775-9.645-15.782C45.166,14.484,52.258,9,63.312,9,74,9,82.119,14.2,82.119,25.831v4.813h-8.6V26.588c0-5.957-3.319-9.825-10.4-9.825-5.39,0-9.257,2.354-9.257,8.406,0,3.867,1.513,6.231,6.43,9.825L73.24,44.166c6.137,4.34,9.825,8.879,9.825,16.538C83.065,71.285,76.257,78,63.784,78c-12.756,0-20.027-7-20.027-19.006V53.329h8.6v5.664c0,7.763,4.633,11.252,11.621,11.252,6.524,0,10.3-3.026,10.3-8.888,0-4.435-2.08-7.366-5.853-10.108" transform="translate(370 76.103)" fill="#ba7d4c"/>
      <rect id="Rectangle_101" data-name="Rectangle 101" width="8.595" height="66.153" transform="translate(486.746 86.53)" fill="#ba7d4c"/>
      <path id="Path_11030" data-name="Path 11030" d="M98.758,9.141V75.388H85.907l-23.337-55v55h-8.6V9.235H67.015L90.163,64.514V9.141Z" transform="translate(456.323 77.292)" fill="#ba7d4c"/>
      <path id="Path_11031" data-name="Path 11031" d="M15.729,56.9,43.415,84.3H31.69L15.729,68.332V84.3h-8.6V18.15H28.485c10.959,0,16.822,4.822,16.822,14.089s-5.863,14.08-16.822,14.08H15.729Zm0-18.146H28.485c5.286,0,8.123-2.269,8.123-6.515,0-4.265-2.837-6.43-8.123-6.43H15.729Z" transform="translate(60.239 153.473)" fill="#ba7d4c"/>
      <path id="Path_11032" data-name="Path 11032" d="M50.773,18.15v7.839H21.006V41.118h23.81v7.839H21.006V76.738H50.773V84.3H12.4V18.15Z" transform="translate(104.865 153.476)" fill="#ba7d4c"/>
      <path id="Path_11033" data-name="Path 11033" d="M42.318,60.248,28.7,50.225c-6.7-4.908-9.645-8.775-9.645-15.782C19.057,23.484,26.149,18,37.2,18,47.888,18,56.01,23.2,56.01,34.831v4.813h-8.6V35.588c0-5.957-3.319-9.825-10.4-9.825-5.39,0-9.257,2.354-9.257,8.406,0,3.867,1.513,6.231,6.43,9.825l12.945,9.172c6.137,4.34,9.834,8.879,9.834,16.538C56.965,80.285,50.148,87,37.675,87,24.92,87,17.648,80,17.648,67.993V62.329h8.6v5.664c0,7.763,4.633,11.252,11.621,11.252,6.524,0,10.3-3.026,10.3-8.888,0-4.435-2.08-7.366-5.844-10.108" transform="translate(149.228 152.205)" fill="#ba7d4c"/>
      <rect id="Rectangle_102" data-name="Rectangle 102" width="8.595" height="66.153" transform="translate(219.157 171.632)" fill="#ba7d4c"/>
      <path id="Path_11034" data-name="Path 11034" d="M57.985,84.3H25.666V18.15h8.6V76.464H57.985Z" transform="translate(217.023 153.477)" fill="#ba7d4c"/>
      <rect id="Rectangle_103" data-name="Rectangle 103" width="8.595" height="66.153" transform="translate(287.04 171.632)" fill="#ba7d4c"/>
      <path id="Path_11035" data-name="Path 11035" d="M71.217,18.15v7.839H41.459V41.118h23.81v7.839H41.459V76.738H71.217V84.3H32.845V18.15Z" transform="translate(277.73 153.476)" fill="#ba7d4c"/>
      <path id="Path_11036" data-name="Path 11036" d="M83.122,18.141V84.388H70.272l-23.346-55v55h-8.6V18.235H51.37L74.527,73.514V18.141Z" transform="translate(324.11 153.394)" fill="#ba7d4c"/>
      <path id="Path_11037" data-name="Path 11037" d="M87.36,66.206C87.36,81.136,76.023,87,66,87c-9.825,0-21.446-5.863-21.446-20.793V38.8C44.554,23.863,56.175,18,66,18,76.023,18,87.36,23.863,87.36,38.8v3.678h-8.6V39.843c0-8.983-4.624-13.995-12.765-13.995-8.019,0-12.841,5.012-12.841,13.995V65.165c0,8.983,4.822,13.985,12.841,13.985,8.141,0,12.765-5,12.765-13.985V61.289h8.6Z" transform="translate(376.739 152.205)" fill="#ba7d4c"/>
      <path id="Path_11038" data-name="Path 11038" d="M88.8,18.15v7.839H59.03V41.118h23.81v7.839H59.03V76.738H88.8V84.3H50.425V18.15Z" transform="translate(426.383 153.476)" fill="#ba7d4c"/>
    </g>
  </g>
</svg>
