<svg xmlns="http://www.w3.org/2000/svg" width="1153" height="547" viewBox="0 0 1153 547">
  <g fill="none" fill-rule="evenodd" transform="translate(73 13)">
    <path fill="#020202" d="M925.295225,392.993053 L1004,392.993053 L1004,245.300745 L964.647613,245.300745 L964.647613,284.683045 L925.295225,284.683045 L925.295225,245.300745 L846.583508,245.300745 L846.583508,392.993053 L885.942838,392.993053 L885.942838,353.610753 L925.295225,353.610753 L925.295225,392.993053 Z M964.647613,196.074607 L1004,196.074607 L1004,166.536146 L984.327277,166.536146 L984.327277,136.997684 L1004,136.997684 L1004,48.3822997 L846.583508,48.3822997 L846.583508,196.074607 L885.942838,196.074607 L885.942838,156.692308 L964.647613,156.692308 L964.647613,196.074607 Z M885.942838,127.153846 L925.295225,127.153846 L925.295225,77.9207613 L885.942838,77.9207613 L885.942838,127.153846 Z M648.773377,392.993053 L806.189869,392.993053 L806.189869,245.300745 L648.773377,245.300745 L648.773377,392.993053 Z M688.125765,363.454592 L766.83054,363.454592 L766.83054,274.839207 L688.125765,274.839207 L688.125765,363.454592 Z M648.773377,196.074607 L806.189869,196.074607 L806.189869,166.536146 L766.83054,166.536146 L766.83054,117.303061 L806.189869,117.303061 L806.189869,87.7645995 L766.83054,87.7645995 L766.83054,48.3822997 L648.773377,48.3822997 L648.773377,196.074607 Z M766.83054,38.5384615 L806.189869,38.5384615 L806.189869,9 L766.83054,9 L766.83054,38.5384615 Z M590.782577,156.692308 L610.462242,156.692308 L610.462242,48.3822997 L572.241348,48.3822997 L572.241348,127.153846 L493.536573,127.153846 L493.536573,48.3822997 L453.04575,48.3822997 L453.04575,156.692308 L472.725415,156.692308 L472.725415,196.074607 L590.782577,196.074607 L590.782577,156.692308 Z M255.228677,393 L412.645169,393 L412.645169,363.454592 L373.292782,363.454592 L373.292782,314.221507 L412.645169,314.221507 L412.645169,284.683045 L373.292782,284.683045 L373.292782,245.300745 L255.228677,245.300745 L255.228677,393 Z M254,196.074607 L411.416492,196.074607 L411.416492,48.3822997 L254,48.3822997 L254,196.074607 Z M293.352387,166.536146 L372.064104,166.536146 L372.064104,77.9207613 L293.352387,77.9207613 L293.352387,166.536146 Z M451.997557,392.993053 L609.42099,392.993053 L609.42099,245.300745 L451.997557,245.300745 L451.997557,392.993053 Z M491.356886,363.454592 L570.061661,363.454592 L570.061661,274.839207 L491.356886,274.839207 L491.356886,363.454592 Z"/>
    <polygon fill="#4A4A4A" points="766 483 806 483 806 443 766 443"/>
    <polygon fill="#848484" points="926 404 1004 404 1004 395 926 395"/>
    <polygon fill="#4A4A4A" points="964 246 1004 246 1004 237 964 237"/>
    <polygon fill="#848484" points="964 207 1004 207 1004 198 964 198"/>
    <polygon fill="#4A4A4A" points="985 167 1004 167 1004 158 985 158"/>
    <polygon fill="#848484" points="985 147 1004 147 1004 138 985 138"/>
    <polygon fill="#4A4A4A" points="846 49 1004 49 1004 40 846 40"/>
    <polygon fill="#848484" points="648 404 806 404 806 395 648 395"/>
    <polygon fill="#4A4A4A" points="688 364 766 364 766 355 688 355"/>
    <polygon fill="#848484" points="688 285 766 285 766 276 688 276"/>
    <polygon fill="#4A4A4A" points="648 246 806 246 806 237 648 237"/>
    <polygon fill="#848484" points="648 207 806 207 806 198 648 198"/>
    <polygon fill="#4A4A4A" points="766 167 806 167 806 158 766 158"/>
    <polygon fill="#848484" points="766 127 806 127 806 118 766 118"/>
    <polygon fill="#4A4A4A" points="766 89 806 89 806 80 766 80"/>
    <polyline fill="#848484" points="732.885 49 766 49 766 40 648 40 648 49 732.885 49"/>
    <polygon fill="#4A4A4A" points="766 9 806 9 806 0 766 0"/>
    <polygon fill="#848484" points="590 167 610 167 610 158 590 158"/>
    <polygon fill="#4A4A4A" points="572 49 611 49 611 40 572 40"/>
    <polygon fill="#4A4A4A" points="494 127 572 127 572 118 494 118"/>
    <polygon fill="#4A4A4A" points="452 49 493 49 493 40 452 40"/>
    <polygon fill="#848484" points="453 167 473 167 473 158 453 158"/>
    <polygon fill="#848484" points="473 207 591 207 591 198 473 198"/>
    <polygon fill="#4A4A4A" points="451 246 609 246 609 237 451 237"/>
    <polygon fill="#848484" points="254 404 412 404 412 395 254 395"/>
    <polygon fill="#4A4A4A" points="372 364 412 364 412 355 372 355"/>
    <polygon fill="#848484" points="372 324 412 324 412 315 372 315"/>
    <polygon fill="#4A4A4A" points="372 285 412 285 412 276 372 276"/>
    <polygon fill="#848484" points="252 207 410 207 410 198 252 198"/>
    <polygon fill="#4A4A4A" points="292 167 370 167 370 158 292 158"/>
    <polygon fill="#848484" points="292 89 370 89 370 80 292 80"/>
    <polygon fill="#4A4A4A" points="252 49 410 49 410 40 252 40"/>
    <polygon fill="#4A4A4A" points="255 246 373 246 373 237 255 237"/>
    <polygon fill="#848484" points="491 285 569 285 569 276 491 276"/>
    <polygon fill="#4A4A4A" points="491 364 569 364 569 355 491 355"/>
    <polygon fill="#848484" points="451 404 609 404 609 395 451 395"/>
    <polygon fill="#848484" points="846 207 886 207 886 198 846 198"/>
    <polygon fill="#4A4A4A" points="847 246 925 246 925 237 847 237"/>
    <polygon fill="#848484" points="846 404 886 404 886 395 846 395"/>
    <polygon fill="#848484" points="886 364 926 364 926 355 886 355"/>
    <polygon fill="#4A4A4A" points="925 285 965 285 965 276 925 276"/>
    <polygon fill="#848484" points="886 167 964 167 964 158 886 158"/>
    <polygon fill="#848484" points="886 89 926 89 926 80 886 80"/>
    <polygon fill="#4A4A4A" points="886 127 926 127 926 118 886 118"/>
    <polygon fill="#4A4A4A" points="766 49 806 49 806 40 766 40"/>
    <path fill="#898989" d="M5.68434189e-14,498 L6.29284267,498 L6.29284267,474.831761 C7.97185913,479.495676 11.9612577,483.760613 18.6703855,483.760613 C27.3707435,483.760613 33.982738,475.464623 33.982738,463.275157 C33.982738,451.883648 28.647351,444.296187 18.8299614,444.296187 C13.3211223,444.296187 8.53384398,446.97897 6.29284267,452.041863 L6.29284267,445.24548 L5.68434189e-14,445.24548 L5.68434189e-14,498 Z M6.13326673,462.965605 C6.13326673,451.250786 13.0019704,449.7443 16.9150501,449.7443 C22.736103,449.7443 27.3707435,454.174332 27.3707435,463.832351 C27.3707435,473.483491 22.902617,478.553263 16.991369,478.553263 C11.0870591,478.553263 6.13326673,473.566038 6.13326673,462.965605 Z M44.1400938,482.969536 L50.4329365,482.969536 L50.4329365,428.791077 L44.1400938,428.791077 L44.1400938,482.969536 Z M83.2500763,469.761989 C83.2500763,475.306407 77.5053423,478.787146 73.7518386,478.787146 C69.679183,478.787146 66.723559,476.647799 66.723559,472.217767 C66.723559,467.388758 71.1153665,465.490173 75.9095829,465.490173 C78.5391169,465.490173 81.2588461,466.123035 83.2500763,466.98978 L83.2500763,469.761989 Z M83.2500763,463.275157 C80.9396942,462.174528 77.9008131,461.624214 74.8688702,461.624214 C67.4451198,461.624214 60.1948214,465.091195 60.1948214,473.008844 C60.1948214,479.337461 64.8155857,483.760613 71.3581994,483.760613 C77.0266145,483.760613 81.8971498,480.211085 83.5692282,475.698506 C83.6524852,480.286753 85.8032914,483.760613 90.2644798,483.760613 C91.3815114,483.760613 92.6581189,483.602398 94.0110454,483.210299 L94.0110454,477.204992 C93.3727417,477.755307 92.5748619,478.071737 91.8602392,478.071737 C90.5836317,478.071737 89.542919,477.122445 89.542919,474.590998 L89.542919,456.313679 C89.542919,447.061517 83.8120612,444.296187 75.9095829,444.296187 C68.0834235,444.296187 61.9501568,448.003931 61.9501568,453.86478 C61.9501568,455.130503 62.1097327,456.870873 63.6222352,458.769458 L69.9983349,456.712657 C68.5621514,455.680818 68.0001665,454.415094 68.0001665,453.465802 C68.0001665,450.617925 71.3581994,448.71934 75.6667499,448.71934 C80.5372853,448.71934 83.2500763,451.010024 83.2500763,456.155464 L83.2500763,463.275157 Z M109.947826,450.143278 L121.118142,450.143278 L121.118142,445.24548 L109.947826,445.24548 L109.947826,435.119693 L103.814559,435.993318 L103.814559,445.24548 L97.9102489,445.24548 L97.9102489,450.143278 L103.654983,450.143278 L103.654983,472.850629 C103.654983,481.394261 108.032914,483.760613 113.458496,483.760613 C116.809591,483.760613 120.077429,482.811321 123.033053,480.919615 L120.320262,474.749214 C118.960397,477.122445 116.88591,478.711478 114.735104,478.711478 C112.022313,478.711478 109.947826,477.521423 109.947826,472.059552 L109.947826,450.143278 Z M140.336636,439.625393 C140.336636,434.163522 142.16829,433.21423 145.443066,433.21423 C147.836705,433.21423 150.070768,434.321737 151.742847,436.137775 L153.262287,429.816038 C150.549496,428.550314 147.836705,428 144.721505,428 C137.866678,428 133.960536,431.398192 133.960536,439.542846 L133.960536,445.24548 L127.820331,445.24548 L127.820331,450.143278 L133.960536,450.143278 L133.960536,482.969536 L140.336636,482.969536 L140.336636,450.143278 L149.987511,450.143278 L149.987511,445.24548 L140.336636,445.24548 L140.336636,439.625393 Z M154.95518,463.990566 C154.95518,476.730346 162.288735,483.760613 173.063581,483.760613 C184.795882,483.760613 191.088724,474.51533 191.088724,463.990566 C191.088724,452.041863 184.317154,444.296187 172.980324,444.296187 C162.122221,444.296187 154.95518,452.592178 154.95518,463.990566 Z M161.643493,463.990566 C161.643493,455.440055 164.758693,449.427869 172.904005,449.427869 C181.521106,449.427869 184.47673,455.440055 184.47673,463.990566 C184.47673,472.534198 181.444787,478.711478 172.904005,478.711478 C164.84195,478.711478 161.643493,473.249607 161.643493,463.990566 Z M207.316904,461.459119 C207.393223,455.914701 211.465879,450.851808 216.648628,450.851808 C218.008492,450.851808 219.444676,451.326454 220.797602,452.275747 L221.435906,444.695165 C220.797602,444.454403 219.763828,444.296187 218.723115,444.296187 C213.935837,444.296187 209.391391,447.852594 207.233647,453.699686 L207.233647,445.24548 L201.024061,445.24548 L201.024061,482.969536 L207.316904,482.969536 L207.316904,461.459119 Z M260.573641,460.110849 C260.573641,453.54147 265.846585,449.985063 270.793439,449.985063 C276.378597,449.985063 279.334221,452.592178 279.334221,459.237225 L279.334221,482.969536 L285.627064,482.969536 L285.627064,458.212264 C285.627064,448.561124 280.770405,444.296187 273.11076,444.296187 C266.325313,444.296187 261.933505,448.327241 260.018594,453.307586 C258.582411,447.137186 254.121222,444.296187 247.974079,444.296187 C242.069769,444.296187 237.594705,447.295401 235.360642,452.83294 L235.360642,445.24548 L229.151056,445.24548 L229.151056,482.969536 L235.443899,482.969536 L235.443899,460.509827 C235.443899,453.624017 240.633586,449.985063 245.656759,449.985063 C251.248855,449.985063 254.204479,452.592178 254.204479,459.237225 L254.204479,482.969536 L260.573641,482.969536 L260.573641,460.110849 Z M324.244443,439.625393 C324.244443,434.163522 326.076097,433.21423 329.350873,433.21423 C331.744512,433.21423 333.978575,434.321737 335.650654,436.137775 L337.170094,429.816038 C334.457303,428.550314 331.744512,428 328.629312,428 C321.774485,428 317.868343,431.398192 317.868343,439.542846 L317.868343,445.24548 L311.728138,445.24548 L311.728138,450.143278 L317.868343,450.143278 L317.868343,482.969536 L324.244443,482.969536 L324.244443,450.143278 L333.895318,450.143278 L333.895318,445.24548 L324.244443,445.24548 L324.244443,439.625393 Z M338.862987,463.990566 C338.862987,476.730346 346.189604,483.760613 356.971387,483.760613 C368.703688,483.760613 374.996531,474.51533 374.996531,463.990566 C374.996531,452.041863 368.22496,444.296187 356.88813,444.296187 C346.030028,444.296187 338.862987,452.592178 338.862987,463.990566 Z M345.5513,463.990566 C345.5513,455.440055 348.6665,449.427869 356.811811,449.427869 C365.428912,449.427869 368.384536,455.440055 368.384536,463.990566 C368.384536,472.534198 365.352593,478.711478 356.811811,478.711478 C348.749757,478.711478 345.5513,473.249607 345.5513,463.990566 Z M391.224711,461.459119 C391.30103,455.914701 395.373685,450.851808 400.556434,450.851808 C401.916299,450.851808 403.352482,451.326454 404.705409,452.275747 L405.343713,444.695165 C404.705409,444.454403 403.671634,444.296187 402.630922,444.296187 C397.843643,444.296187 393.299198,447.852594 391.141454,453.699686 L391.141454,445.24548 L384.931868,445.24548 L384.931868,482.969536 L391.224711,482.969536 L391.224711,461.459119 Z M449.081398,473.091392 C449.081398,477.046777 445.48747,478.869693 441.57439,478.869693 C436.620598,478.869693 433.512336,476.888561 431.285211,473.724253 L427.934116,479.103577 C431.042378,481.78636 435.503566,483.760613 440.77651,483.760613 C448.123942,483.760613 455.450559,480.837068 455.450559,472.375983 C455.450559,459.085888 435.184414,462.325865 435.184414,454.648978 C435.184414,450.535377 439.499903,449.269654 442.289013,449.269654 C447.083229,449.269654 449.79602,451.168239 451.787251,454.57331 L454.18089,448.320362 C451.308523,445.637579 446.999972,444.296187 442.053118,444.296187 C436.544279,444.296187 428.974829,447.377948 428.974829,455.123624 C428.974829,467.705189 449.081398,463.357704 449.081398,473.091392 Z M462.881248,463.990566 C462.881248,476.730346 470.214803,483.760613 480.989648,483.760613 C492.721949,483.760613 499.014792,474.51533 499.014792,463.990566 C499.014792,452.041863 492.243221,444.296187 480.906391,444.296187 C470.055227,444.296187 462.881248,452.592178 462.881248,463.990566 Z M469.576499,463.990566 C469.576499,455.440055 472.684761,449.427869 480.830072,449.427869 C489.447173,449.427869 492.402797,455.440055 492.402797,463.990566 C492.402797,472.534198 489.370854,478.711478 480.830072,478.711478 C472.768018,478.711478 469.576499,473.249607 469.576499,463.990566 Z M534.392085,467.553852 C534.315766,474.439662 528.966503,478.154285 523.776816,478.154285 C518.267977,478.154285 514.916882,475.464623 514.916882,468.819575 L514.916882,445.24548 L508.624039,445.24548 L508.624039,469.927083 C508.624039,479.495676 513.79985,483.760613 521.459495,483.760613 C527.287486,483.760613 532.241279,480.761399 534.392085,475.230739 L534.392085,482.969536 L540.684928,482.969536 L540.684928,445.24548 L534.392085,445.24548 L534.392085,467.553852 Z M558.93209,460.502948 C559.015347,453.624017 564.440929,449.985063 569.554297,449.985063 C575.139455,449.985063 578.49055,452.592178 578.49055,459.237225 L578.49055,482.969536 L584.783393,482.969536 L584.783393,458.212264 C584.783393,448.561124 579.531263,444.296187 571.86468,444.296187 C566.036689,444.296187 561.089834,447.295401 558.855771,452.83294 L558.855771,445.24548 L552.639247,445.24548 L552.639247,482.969536 L558.93209,482.969536 L558.93209,460.502948 Z M628.611273,428.791077 L622.242111,428.791077 L622.242111,451.801101 C620.00111,446.820755 616.094969,444.296187 610.426553,444.296187 C600.928316,444.296187 594.552216,452.516509 594.552216,464.857311 C594.552216,476.331368 600.685483,483.760613 609.864569,483.760613 C616.41412,483.760613 620.646352,479.179245 622.242111,474.432783 L622.242111,482.969536 L628.611273,482.969536 L628.611273,428.791077 Z M622.401687,462.800511 C622.401687,473.641706 617.212,478.395047 611.543585,478.395047 C605.472761,478.395047 601.164211,473.325275 601.164211,464.066234 C601.164211,454.965409 605.639275,449.586085 611.703161,449.586085 C615.775817,449.586085 622.401687,451.326454 622.401687,462.800511 Z M679.363361,469.761989 C679.363361,475.306407 673.618627,478.787146 669.865124,478.787146 C665.792468,478.787146 662.836844,476.647799 662.836844,472.217767 C662.836844,467.388758 667.228652,465.490173 672.022868,465.490173 C674.65934,465.490173 677.372131,466.123035 679.363361,466.98978 L679.363361,469.761989 Z M679.363361,463.275157 C677.052979,462.174528 674.014098,461.624214 670.982155,461.624214 C663.558405,461.624214 656.308106,465.091195 656.308106,473.008844 C656.308106,479.337461 660.928871,483.760613 667.471484,483.760613 C673.1399,483.760613 678.010435,480.211085 679.682513,475.698506 C679.76577,480.286753 681.916576,483.760613 686.377765,483.760613 C687.494796,483.760613 688.771404,483.602398 690.131269,483.210299 L690.131269,477.204992 C689.492965,477.755307 688.695085,478.071737 687.973524,478.071737 C686.696917,478.071737 685.656204,477.122445 685.656204,474.590998 L685.656204,456.313679 C685.656204,447.061517 679.925346,444.296187 672.022868,444.296187 C664.196709,444.296187 658.063442,448.003931 658.063442,453.86478 C658.063442,455.130503 658.223018,456.870873 659.73552,458.769458 L666.11162,456.712657 C664.675436,455.680818 664.12039,454.415094 664.12039,453.465802 C664.12039,450.617925 667.471484,448.71934 671.780035,448.71934 C676.65057,448.71934 679.363361,451.010024 679.363361,456.155464 L679.363361,463.275157 Z M705.01346,461.459119 C705.096717,455.914701 709.162434,450.851808 714.352122,450.851808 C715.705048,450.851808 717.141232,451.326454 718.501096,452.275747 L719.1394,444.695165 C718.501096,444.454403 717.460384,444.296187 716.426609,444.296187 C711.639331,444.296187 707.087947,447.852594 704.937141,453.699686 L704.937141,445.24548 L698.720617,445.24548 L698.720617,482.969536 L705.01346,482.969536 L705.01346,461.459119 Z M736.914773,450.143278 L748.085089,450.143278 L748.085089,445.24548 L736.914773,445.24548 L736.914773,435.119693 L730.781506,435.993318 L730.781506,445.24548 L724.877196,445.24548 L724.877196,450.143278 L730.62193,450.143278 L730.62193,472.850629 C730.62193,481.394261 734.999861,483.760613 740.425443,483.760613 C743.776538,483.760613 747.044376,482.811321 750,480.919615 L747.287209,474.749214 C745.927344,477.122445 743.859795,478.711478 741.702051,478.711478 C738.98926,478.711478 736.914773,477.521423 736.914773,472.059552 L736.914773,450.143278 L736.914773,450.143278 Z"/>
  </g>
</svg>
