<svg xmlns="http://www.w3.org/2000/svg" width="46" height="46" viewBox="0 0 46 46"><g id="Ellipse_11" fill="none" stroke="#000" stroke-width="2"><circle cx="23" cy="23" r="23" stroke="none"/><circle cx="23" cy="23" r="22" fill="none"/></g><text id="HO_ME" transform="translate(12 22)" fill="#000" font-size="15" font-family="Poppins-SemiBold, Poppins" font-weight="600"><tspan x="0" y="0">HO</tspan><tspan x="0" y="14">ME</tspan></text></svg>


<svg width="46px" height="46px" viewBox="0 0 46 46" xmlns="http://www.w3.org/2000/svg" xmlns:xlink="http://www.w3.org/1999/xlink"><g id="Group" fill="#000000" fill-rule="nonzero"><path d="M23,0 C10.2974508,0 0,10.2974508 0,23 C0,35.7025492 10.2974508,46 23,46 C35.7025492,46 46,35.7025492 46,23 C46,10.2974508 35.7025492,0 23,0 Z M23,2 C34.5979797,2 44,11.4020203 44,23 C44,34.5979797 34.5979797,44 23,44 C11.4020203,44 2,34.5979797 2,23 C2,11.4020203 11.4020203,2 23,2 Z" id="Oval"></path><path d="M15.495,22 L15.495,17.665 L19.485,17.665 L19.485,22 L22.05,22 L22.05,11.47 L19.485,11.47 L19.485,15.595 L15.495,15.595 L15.495,11.47 L12.93,11.47 L12.93,22 L15.495,22 Z M28.875,22.105 C31.86,22.105 34.26,19.87 34.26,16.705 C34.26,13.54 31.875,11.32 28.875,11.32 C25.89,11.32 23.46,13.54 23.46,16.705 C23.46,19.87 25.89,22.105 28.875,22.105 Z M28.875,19.765 C27.165,19.765 26.085,18.55 26.085,16.705 C26.085,14.83 27.165,13.645 28.875,13.645 C30.555,13.645 31.65,14.83 31.65,16.705 C31.65,18.55 30.555,19.765 28.875,19.765 Z" id="HO"></path><path d="M15.495,36 L15.495,29.67 L17.865,36 L19.935,36 L22.29,29.685 L22.29,36 L24.855,36 L24.855,25.47 L21.84,25.47 L18.915,32.76 L15.96,25.47 L12.93,25.47 L12.93,36 L15.495,36 Z M33.15,36 L33.15,33.945 L29.265,33.945 L29.265,31.635 L32.7,31.635 L32.7,29.655 L29.265,29.655 L29.265,27.525 L33.15,27.525 L33.15,25.47 L26.7,25.47 L26.7,36 L33.15,36 Z" id="ME"></path></g></svg>

<svg width="46px" height="46px" viewBox="0 0 46 46" xmlns="http://www.w3.org/2000/svg" xmlns:xlink="http://www.w3.org/1999/xlink"><path d="M23,0 C10.2974508,0 0,10.2974508 0,23 C0,35.7025492 10.2974508,46 23,46 C35.7025492,46 46,35.7025492 46,23 C46,10.2974508 35.7025492,0 23,0 Z M23,2 C34.5979797,2 44,11.4020203 44,23 C44,34.5979797 34.5979797,44 23,44 C11.4020203,44 2,34.5979797 2,23 C2,11.4020203 11.4020203,2 23,2 Z"></path><path d="M15.495,22 L15.495,17.665 L19.485,17.665 L19.485,22 L22.05,22 L22.05,11.47 L19.485,11.47 L19.485,15.595 L15.495,15.595 L15.495,11.47 L12.93,11.47 L12.93,22 L15.495,22 Z M28.875,22.105 C31.86,22.105 34.26,19.87 34.26,16.705 C34.26,13.54 31.875,11.32 28.875,11.32 C25.89,11.32 23.46,13.54 23.46,16.705 C23.46,19.87 25.89,22.105 28.875,22.105 Z M28.875,19.765 C27.165,19.765 26.085,18.55 26.085,16.705 C26.085,14.83 27.165,13.645 28.875,13.645 C30.555,13.645 31.65,14.83 31.65,16.705 C31.65,18.55 30.555,19.765 28.875,19.765 Z"></path><path d="M15.495,36 L15.495,29.67 L17.865,36 L19.935,36 L22.29,29.685 L22.29,36 L24.855,36 L24.855,25.47 L21.84,25.47 L18.915,32.76 L15.96,25.47 L12.93,25.47 L12.93,36 L15.495,36 Z M33.15,36 L33.15,33.945 L29.265,33.945 L29.265,31.635 L32.7,31.635 L32.7,29.655 L29.265,29.655 L29.265,27.525 L33.15,27.525 L33.15,25.47 L26.7,25.47 L26.7,36 L33.15,36 Z"></path></svg>